<?xml version="1.0" standalone="no"?>
<!DOCTYPE svg PUBLIC "-//W3C//DTD SVG 20010904//EN"
 "http://www.w3.org/TR/2001/REC-SVG-20010904/DTD/svg10.dtd">
<svg version="1.0" xmlns="http://www.w3.org/2000/svg"
 width="256.000000pt" height="256.000000pt" viewBox="0 0 256.000000 256.000000"
 preserveAspectRatio="xMidYMid meet">
<metadata>
Created by potrace 1.16, written by Peter Selinger 2001-2019
</metadata>
<g transform="translate(0.000000,256.000000) scale(0.100000,-0.100000)"
fill="#000000" stroke="none">
<path d="M150 1280 l0 -1040 534 0 c478 0 535 2 540 16 3 9 6 178 6 376 0 339
1 360 18 355 9 -3 56 -22 104 -42 97 -40 225 -75 274 -75 23 0 37 -6 44 -20 9
-16 21 -20 65 -20 43 0 55 -4 59 -18 9 -27 81 -99 140 -137 85 -57 158 -79
261 -80 104 0 147 19 186 82 28 45 39 185 19 234 -14 32 -59 59 -100 59 -28 0
-228 65 -293 95 -62 29 -138 33 -182 8 -30 -16 -124 -34 -138 -26 -18 11 78
123 106 123 11 0 43 22 72 48 85 78 156 87 170 22 4 -17 15 -35 25 -40 24 -13
71 -13 105 0 23 9 25 14 19 45 -6 35 -6 35 29 35 75 0 114 71 103 188 -14 162
-98 245 -246 245 -179 1 -239 -56 -260 -242 -6 -61 -9 -67 -53 -105 -26 -23
-47 -48 -47 -57 0 -17 -33 -50 -65 -67 -11 -5 -67 -13 -125 -16 l-105 -7 -84
50 c-46 28 -88 51 -93 51 -4 0 -8 218 -8 484 0 266 -3 491 -6 500 -5 14 -62
16 -540 16 l-534 0 0 -1040z m1020 461 l0 -530 -52 -5 c-29 -3 -100 -8 -158
-11 -294 -16 -536 -38 -548 -49 -23 -22 -2 -43 79 -80 118 -54 177 -64 442
-72 l237 -7 0 -348 0 -349 -485 0 -485 0 0 990 0 990 485 0 485 0 0 -529z
m996 -108 c26 -13 46 -34 62 -66 28 -58 39 -161 19 -197 -12 -22 -19 -25 -64
-22 -55 3 -63 -6 -63 -70 0 -39 -16 -35 -39 11 -11 21 -27 41 -36 45 -56 21
-163 -9 -217 -61 l-27 -26 -12 27 c-12 25 -10 29 29 61 36 32 41 41 47 93 10
94 26 152 49 179 44 52 177 65 252 26z m-465 -449 c-22 -26 -53 -66 -68 -90
l-28 -44 -345 0 c-408 1 -583 11 -660 38 l-55 19 80 7 c124 10 526 34 775 46
226 11 293 22 320 56 7 7 15 14 17 14 3 0 -14 -21 -36 -46z m273 -171 c55 -28
214 -82 285 -97 40 -8 75 -17 78 -20 13 -12 18 -75 11 -120 -9 -61 -31 -94
-73 -112 -117 -48 -348 47 -422 174 -30 50 -53 65 -89 56 -25 -6 -26 -6 -19
27 12 60 16 69 33 69 9 0 39 12 67 25 52 25 75 25 129 -2z"/>
<path d="M1970 1597 c-64 -32 -92 -139 -49 -186 20 -21 27 -22 140 -19 106 3
121 5 140 25 18 18 21 28 15 65 -8 56 -39 106 -72 118 -36 14 -144 12 -174 -3z
m173 -89 c10 -21 16 -42 12 -48 -3 -6 -47 -10 -101 -10 -88 0 -94 1 -94 21 0
23 18 60 34 72 6 4 38 6 71 5 58 -3 60 -4 78 -40z"/>
<path d="M1886 964 c-58 -58 49 -182 212 -245 75 -29 162 -31 191 -5 31 28 45
90 29 123 -11 23 -28 31 -113 55 -54 16 -132 42 -173 58 -82 34 -123 37 -146
14z m123 -71 c36 -14 109 -39 161 -54 80 -22 94 -30 92 -45 -2 -11 -10 -25
-17 -33 -37 -38 -266 67 -306 140 -13 25 -8 24 70 -8z"/>
</g>
</svg>
