<?xml version="1.0" standalone="no"?>
<!DOCTYPE svg PUBLIC "-//W3C//DTD SVG 20010904//EN"
 "http://www.w3.org/TR/2001/REC-SVG-20010904/DTD/svg10.dtd">
<svg version="1.0" xmlns="http://www.w3.org/2000/svg"
 width="256.000000pt" height="256.000000pt" viewBox="0 0 256.000000 256.000000"
 preserveAspectRatio="xMidYMid meet">
<metadata>
Created by potrace 1.16, written by Peter Selinger 2001-2019
</metadata>
<g transform="translate(0.000000,256.000000) scale(0.100000,-0.100000)"
fill="#000000" stroke="none">
<path d="M916 2334 c-20 -20 -20 -46 0 -131 24 -103 14 -247 -35 -488 -60
-292 -64 -452 -16 -573 29 -72 28 -72 442 -72 455 0 433 -8 397 147 -25 105
-14 257 35 498 22 110 43 238 47 285 7 95 -7 217 -32 280 -28 70 -25 70 -448
70 -327 0 -377 -2 -390 -16z m767 -61 c55 -63 55 -252 -2 -533 -23 -113 -44
-244 -48 -292 -4 -66 -10 -88 -20 -88 -8 0 -31 -9 -52 -19 l-38 -20 -62 30
c-77 36 -117 37 -183 3 -54 -28 -63 -28 -188 -3 -63 12 -68 11 -124 -14 -32
-15 -63 -24 -68 -21 -18 11 0 166 43 379 55 273 63 474 22 581 -4 12 50 14
349 14 325 0 356 -1 371 -17z m-241 -983 c74 -35 91 -37 143 -10 21 11 39 19
40 17 1 -1 7 -32 13 -69 7 -37 15 -74 18 -83 5 -13 -34 -15 -348 -15 -398 0
-375 -4 -397 74 -6 22 -9 40 -8 41 1 1 34 14 73 29 71 28 72 28 127 12 79 -23
143 -20 197 9 58 31 66 31 142 -5z"/>
<path d="M1170 2105 c-9 -11 -9 -27 0 -71 13 -62 11 -86 -27 -284 -36 -191
-24 -316 30 -308 18 2 21 9 19 33 -9 100 -4 198 16 287 30 132 37 223 23 288
-14 66 -35 86 -61 55z"/>
<path d="M1462 2107 c-8 -9 -8 -32 1 -80 10 -59 8 -82 -12 -190 -40 -208 -45
-275 -30 -337 12 -48 17 -55 39 -55 22 0 25 4 23 35 -7 113 -2 188 21 302 27
133 32 216 16 282 -11 51 -37 69 -58 43z"/>
<path d="M213 2288 c-68 -33 -71 -231 -4 -267 14 -8 125 -10 348 -9 l328 3 0
25 0 25 -286 3 -286 2 7 41 c4 23 5 59 3 80 l-6 39 251 0 c138 0 257 3 266 6
21 8 21 50 0 58 -28 11 -597 5 -621 -6z"/>
<path d="M1806 2284 c-9 -8 -16 -17 -16 -19 0 -2 7 -11 16 -19 13 -14 51 -16
264 -16 236 0 250 -1 260 -19 13 -25 13 -82 0 -115 l-10 -26 -250 0 -251 0 3
-27 3 -28 253 -3 c169 -1 259 1 273 9 29 15 49 69 49 135 0 72 -22 119 -62
133 -19 7 -127 11 -274 11 -207 0 -245 -2 -258 -16z"/>
<path d="M323 1174 c-3 -8 34 -196 81 -417 92 -421 106 -465 164 -504 63 -43
57 -43 719 -43 625 0 637 0 680 21 51 25 96 76 111 127 15 50 142 772 142 806
0 24 -4 27 -27 24 l-28 -3 -71 -402 c-49 -274 -78 -413 -91 -435 -10 -18 -37
-43 -59 -55 l-39 -23 -618 0 c-595 0 -619 1 -656 20 -22 11 -48 34 -59 52 -13
22 -51 173 -107 433 -48 220 -89 403 -92 408 -8 13 -44 7 -50 -9z"/>
<path d="M856 944 c-92 -28 -130 -30 -206 -10 -89 24 -89 23 -35 -210 54 -232
67 -267 114 -302 l34 -27 501 -3 c276 -1 511 0 523 3 30 7 81 52 98 85 8 16
31 122 50 236 43 243 43 241 -45 218 -76 -20 -114 -18 -210 11 -108 32 -183
32 -291 -1 -96 -29 -165 -28 -259 6 -76 27 -174 25 -274 -6z m254 -55 c30 -11
91 -22 135 -25 68 -5 93 -2 164 20 103 32 149 32 237 4 51 -16 94 -23 161 -23
87 0 92 -1 88 -20 -3 -11 -14 -76 -25 -145 -29 -172 -36 -195 -71 -224 l-31
-26 -479 0 c-516 0 -523 1 -550 52 -9 18 -89 336 -89 356 0 4 42 8 93 8 64 1
110 8 152 22 76 26 145 27 215 1z"/>
</g>
</svg>
