<?xml version="1.0" standalone="no"?>
<!DOCTYPE svg PUBLIC "-//W3C//DTD SVG 20010904//EN"
 "http://www.w3.org/TR/2001/REC-SVG-20010904/DTD/svg10.dtd">
<svg version="1.0" xmlns="http://www.w3.org/2000/svg"
 width="256.000000pt" height="256.000000pt" viewBox="0 0 256.000000 256.000000"
 preserveAspectRatio="xMidYMid meet">
<metadata>
Created by potrace 1.16, written by Peter Selinger 2001-2019
</metadata>
<g transform="translate(0.000000,256.000000) scale(0.100000,-0.100000)"
fill="#000000" stroke="none">
<path d="M927 2434 c-4 -4 -7 -22 -7 -40 l0 -33 -77 -3 -78 -3 0 -115 0 -115
78 -3 77 -3 0 -30 c0 -26 -6 -32 -57 -54 -31 -14 -94 -51 -141 -81 -205 -137
-349 -342 -420 -597 -13 -48 -17 -103 -17 -237 0 -209 16 -286 95 -445 142
-289 419 -495 733 -545 110 -18 330 -8 432 19 266 72 511 274 635 525 79 162
95 237 94 451 0 166 -2 187 -27 266 -37 121 -69 189 -133 287 -99 148 -262
288 -416 356 -52 22 -58 28 -58 55 0 29 2 31 39 31 39 0 40 -1 43 -37 l3 -38
115 0 115 0 0 195 0 195 -115 0 -115 0 -3 -37 c-3 -37 -4 -38 -42 -38 -38 0
-39 1 -42 38 l-3 37 -95 0 -95 0 -3 -37 -3 -38 -159 0 -159 0 -3 38 -3 37 -90
3 c-50 1 -94 0 -98 -4z m953 -194 l0 -120 -40 0 -40 0 0 120 0 120 40 0 40 0
0 -120z m-440 0 l0 -40 -160 0 -160 0 0 40 0 40 160 0 160 0 0 -40z m-52 -214
c90 -8 174 -32 268 -76 211 -98 358 -245 454 -454 66 -144 75 -190 75 -381 -1
-159 -3 -175 -29 -255 -90 -269 -254 -457 -500 -570 -147 -68 -295 -93 -460
-78 -209 18 -411 112 -561 263 -107 107 -200 267 -242 415 -25 93 -25 367 0
460 104 372 426 644 802 679 44 4 91 6 105 5 14 -2 53 -5 88 -8z"/>
<path d="M1111 1950 c-305 -64 -547 -287 -643 -590 -20 -66 -23 -95 -23 -240
0 -145 3 -174 23 -240 88 -279 293 -484 572 -572 66 -20 95 -23 235 -23 180 0
239 11 364 71 220 103 378 287 453 524 20 66 23 95 23 240 0 145 -3 174 -23
240 -88 277 -290 481 -567 570 -57 18 -98 23 -220 26 -82 2 -170 -1 -194 -6z
m351 -100 c265 -64 480 -278 548 -545 27 -105 27 -264 1 -368 -119 -465 -633
-702 -1065 -492 -191 94 -343 281 -397 492 -26 103 -26 263 0 366 104 404 507
645 913 547z"/>
<path d="M1235 1786 c-47 -48 -95 -166 -116 -288 l-12 -74 -59 15 c-77 21 -93
11 -93 -55 0 -27 4 -59 8 -71 7 -18 4 -23 -15 -27 -227 -42 -358 -103 -358
-166 0 -64 126 -123 358 -166 19 -4 22 -9 15 -27 -4 -12 -8 -44 -8 -71 0 -66
15 -75 92 -56 l58 15 17 -85 c19 -102 48 -180 88 -243 52 -82 97 -72 154 33
28 51 76 222 76 270 l0 27 54 -15 c30 -8 66 -12 80 -8 23 6 26 11 26 51 0 24
-5 56 -10 71 -12 32 -1 44 41 44 38 0 176 38 223 62 147 74 143 130 -16 203
-48 22 -98 35 -236 61 -18 4 -22 9 -17 22 4 9 10 43 13 74 4 55 4 57 -23 64
-15 4 -50 0 -81 -8 l-54 -15 0 26 c0 42 -37 184 -63 242 -30 67 -73 119 -98
119 -11 0 -31 -11 -44 -24z m95 -616 c11 -11 20 -33 20 -50 0 -17 -9 -39 -20
-50 -11 -11 -33 -20 -50 -20 -17 0 -39 9 -50 20 -11 11 -20 33 -20 50 0 17 9
39 20 50 11 11 33 20 50 20 17 0 39 -9 50 -20z"/>
</g>
</svg>
