<?xml version="1.0" standalone="no"?>
<!DOCTYPE svg PUBLIC "-//W3C//DTD SVG 20010904//EN"
 "http://www.w3.org/TR/2001/REC-SVG-20010904/DTD/svg10.dtd">
<svg version="1.0" xmlns="http://www.w3.org/2000/svg"
 width="512.000000pt" height="512.000000pt" viewBox="0 0 512.000000 512.000000"
 preserveAspectRatio="xMidYMid meet">
<metadata>
Created by potrace 1.16, written by Peter Selinger 2001-2019
</metadata>
<g transform="translate(0.000000,512.000000) scale(0.100000,-0.100000)"
fill="#000000" stroke="none">
<path d="M600 4671 c0 -59 29 -107 83 -136 l37 -20 0 -597 0 -598 -180 0 -180
0 0 -140 0 -140 705 0 705 0 0 24 c0 33 39 86 80 110 34 21 47 21 710 21 663
0 676 0 710 -21 41 -24 80 -77 80 -110 0 -24 0 -24 125 -24 l125 0 0 140 0
140 -1400 0 -1400 0 0 583 0 584 40 -38 c234 -223 528 -376 854 -445 98 -21
159 -27 322 -31 273 -7 452 15 705 87 56 16 105 28 107 25 2 -2 -1 -41 -7 -86
-6 -45 -10 -84 -8 -86 3 -3 428 228 482 262 21 13 21 15 6 139 -8 69 -18 126
-22 126 -4 0 -106 -56 -226 -125 -192 -111 -232 -130 -336 -160 -264 -77 -435
-100 -701 -92 -140 4 -217 11 -291 27 -299 64 -582 205 -775 387 l-79 74 25
36 c17 26 24 49 24 84 l0 49 -37 0 c-36 0 -39 -2 -53 -47 -17 -55 -50 -74 -97
-57 -21 7 -32 20 -43 57 -14 45 -17 47 -52 47 l-38 0 0 -49z"/>
<path d="M2880 4472 c0 -4 -5 -45 -10 -91 -6 -46 -9 -86 -6 -88 3 -3 67 30
143 73 228 128 224 114 36 114 -90 0 -163 -3 -163 -8z"/>
<path d="M3060 3975 c-231 -130 -255 -146 -261 -173 -12 -58 -32 -253 -26
-258 3 -3 134 68 291 158 254 145 286 166 286 188 0 44 -23 230 -29 229 -3 0
-121 -65 -261 -144z"/>
<path d="M3050 3620 c-256 -146 -295 -172 -298 -194 l-3 -26 330 0 c309 0 331
1 331 18 1 60 -45 372 -54 371 -6 -1 -144 -77 -306 -169z"/>
<path d="M3680 3480 l0 -120 400 0 400 0 0 120 0 120 -400 0 -400 0 0 -120z"/>
<path d="M4560 3180 l0 -140 100 0 100 0 0 140 0 140 -100 0 -100 0 0 -140z"/>
<path d="M3680 3175 l0 -105 113 82 c62 46 126 93 143 105 l29 22 -142 1 -143
0 0 -105z"/>
<path d="M4206 3271 c5 -4 69 -52 142 -104 l132 -97 0 105 0 105 -142 0 c-80
0 -138 -4 -132 -9z"/>
<path d="M3873 3128 l-193 -141 0 -133 0 -134 400 0 400 0 0 134 0 134 -194
141 c-107 78 -200 141 -207 141 -8 -1 -101 -64 -206 -142z m283 -92 c28 -28
34 -42 34 -76 0 -34 -6 -48 -34 -76 -28 -28 -42 -34 -76 -34 -34 0 -48 6 -76
34 -28 28 -34 42 -34 76 0 34 6 48 34 76 28 28 42 34 76 34 34 0 48 -6 76 -34z"/>
<path d="M1860 3100 c-13 -13 -20 -33 -20 -58 0 -34 9 -46 120 -157 l120 -120
100 100 100 100 0 77 0 78 -200 0 c-187 0 -201 -1 -220 -20z"/>
<path d="M2360 3042 l0 -77 100 -100 100 -100 100 100 100 100 0 77 0 78 -200
0 -200 0 0 -78z"/>
<path d="M2840 3042 l0 -77 100 -100 100 -100 120 120 c111 111 120 123 120
157 0 25 -7 45 -20 58 -19 19 -33 20 -220 20 l-200 0 0 -78z"/>
<path d="M360 2840 l0 -120 700 0 700 0 0 120 0 120 -700 0 -700 0 0 -120z"/>
<path d="M3360 2840 l0 -120 120 0 120 0 0 120 0 120 -120 0 -120 0 0 -120z"/>
<path d="M4560 2840 l0 -120 100 0 100 0 0 120 0 120 -100 0 -100 0 0 -120z"/>
<path d="M1840 2780 l0 -135 120 -120 120 -120 100 100 100 100 0 135 0 135
-100 -100 -100 -100 -120 120 -120 120 0 -135z"/>
<path d="M3158 2793 l-118 -118 -100 100 -100 100 0 -135 0 -135 100 -100 100
-100 120 120 121 121 -3 132 -3 132 -117 -117z"/>
<path d="M2360 2740 l0 -135 100 -100 100 -100 100 100 100 100 0 135 0 135
-100 -100 -100 -100 -100 100 -100 100 0 -135z"/>
<path d="M1043 2213 c-95 -236 -287 -716 -428 -1067 -248 -617 -257 -641 -246
-677 14 -47 48 -69 105 -69 36 0 48 5 68 29 17 20 749 1817 895 2199 4 9 -22
12 -109 12 l-114 0 -171 -427z"/>
<path d="M3685 2623 c129 -339 876 -2174 893 -2195 20 -24 31 -28 72 -28 76 0
120 59 99 133 -4 16 -196 497 -426 1068 l-417 1039 -114 0 c-105 0 -114 -1
-107 -17z"/>
<path d="M1840 2420 l0 -135 120 -120 120 -120 100 100 100 100 0 135 0 135
-100 -100 -100 -100 -120 120 -120 120 0 -135z"/>
<path d="M3158 2433 l-118 -118 -100 100 -100 100 0 -135 0 -135 100 -100 100
-100 120 120 121 121 -3 132 -3 132 -117 -117z"/>
<path d="M2360 2380 l0 -135 100 -100 100 -100 100 100 100 100 0 135 0 135
-100 -100 -100 -100 -100 100 -100 100 0 -135z"/>
<path d="M1840 2060 l0 -135 120 -120 120 -120 100 100 100 100 0 135 0 135
-100 -100 -100 -100 -120 120 -120 120 0 -135z"/>
<path d="M3158 2073 l-118 -118 -100 100 -100 100 0 -135 0 -135 100 -100 100
-100 120 120 121 121 -3 132 -3 132 -117 -117z"/>
<path d="M2360 2020 l0 -135 100 -100 100 -100 100 100 100 100 0 135 0 135
-100 -100 -100 -100 -100 100 -100 100 0 -135z"/>
<path d="M1840 1677 c0 -212 -18 -197 240 -197 l200 0 0 157 0 158 -100 -100
-100 -100 -120 120 -120 120 0 -158z"/>
<path d="M3158 1713 l-118 -118 -100 100 -100 100 0 -158 0 -157 200 0 c258 0
240 -15 240 195 0 85 -1 155 -3 155 -1 0 -55 -53 -119 -117z"/>
<path d="M2360 1637 l0 -157 200 0 200 0 0 157 0 158 -100 -100 -100 -100
-100 100 -100 100 0 -158z"/>
</g>
</svg>
