<?xml version="1.0" standalone="no"?>
<!DOCTYPE svg PUBLIC "-//W3C//DTD SVG 20010904//EN"
 "http://www.w3.org/TR/2001/REC-SVG-20010904/DTD/svg10.dtd">
<svg version="1.0" xmlns="http://www.w3.org/2000/svg"
 width="256.000000pt" height="256.000000pt" viewBox="0 0 256.000000 256.000000"
 preserveAspectRatio="xMidYMid meet">
<metadata>
Created by potrace 1.16, written by Peter Selinger 2001-2019
</metadata>
<g transform="translate(0.000000,256.000000) scale(0.100000,-0.100000)"
fill="#000000" stroke="none">
<path d="M742 2528 c-9 -9 -12 -135 -12 -505 l0 -493 -290 0 c-276 0 -290 -1
-300 -19 -6 -13 -10 -190 -10 -505 l0 -486 -53 0 c-29 0 -58 -5 -65 -12 -8 -8
-12 -60 -12 -170 0 -179 0 -178 84 -178 l46 0 0 -58 c0 -32 5 -63 12 -70 17
-17 349 -17 366 0 7 7 12 38 12 70 l0 58 760 0 760 0 0 -64 c0 -49 4 -65 16
-70 31 -12 349 -7 362 6 7 7 12 38 12 70 l0 58 53 0 c29 0 58 5 65 12 8 8 12
60 12 170 0 179 0 178 -84 178 l-46 0 0 495 c0 478 -1 495 -19 505 -12 6 -126
10 -300 10 l-281 0 0 493 c0 370 -3 496 -12 505 -17 17 -1059 17 -1076 0z
m328 -140 l0 -72 47 -48 c57 -58 84 -61 130 -16 l33 32 33 -32 c45 -44 72 -41
130 12 l47 44 0 76 0 76 125 0 125 0 0 -465 0 -465 -460 0 -460 0 0 465 0 465
125 0 125 0 0 -72z m330 19 c0 -39 -5 -58 -18 -70 -17 -16 -20 -15 -52 18 -19
19 -43 35 -55 35 -12 0 -36 -16 -55 -35 -32 -33 -35 -34 -52 -18 -13 12 -18
31 -18 70 l0 53 125 0 125 0 0 -53z m-920 -1106 c0 -180 0 -180 120 -121 l88
43 76 -42 c77 -42 109 -46 128 -17 4 6 8 71 8 144 l0 132 120 0 120 0 0 -460
0 -460 -460 0 -460 0 0 460 0 460 130 0 130 0 0 -139z m330 48 c0 -50 -3 -89
-7 -87 -5 2 -34 16 -65 32 l-57 30 -60 -33 -61 -32 0 90 0 91 125 0 125 0 0
-91z m520 -369 l0 -460 -50 0 -50 0 0 460 0 460 50 0 50 0 0 -460z m340 326
c0 -109 3 -138 16 -150 22 -22 27 -21 116 26 l79 42 80 -43 c70 -37 84 -42
105 -32 24 10 24 12 24 151 l0 140 125 0 125 0 0 -460 0 -460 -465 0 -465 0 0
460 0 460 130 0 130 0 0 -134z m330 44 l0 -90 -64 32 -64 31 -56 -31 c-31 -18
-58 -32 -61 -32 -3 0 -5 41 -5 90 l0 90 125 0 125 0 0 -90z m480 -1010 l0 -90
-1200 0 -1200 0 0 90 0 90 1200 0 1200 0 0 -90z"/>
<path d="M862 1828 c-18 -18 -14 -56 7 -68 12 -6 104 -10 230 -10 177 0 212 2
225 16 19 18 20 28 6 55 -10 18 -23 19 -233 19 -160 0 -226 -3 -235 -12z"/>
<path d="M862 1688 c-7 -7 -12 -19 -12 -28 0 -35 21 -40 177 -40 l153 0 12 25
c8 19 8 28 -2 40 -10 12 -40 15 -164 15 -105 0 -156 -4 -164 -12z"/>
<path d="M337 782 c-26 -26 -47 -55 -47 -64 0 -34 12 -48 41 -48 28 0 29 -2
29 -48 0 -53 12 -72 47 -72 28 0 43 27 43 79 0 38 2 40 33 43 27 3 33 7 35 32
3 23 -6 38 -44 77 -27 28 -57 49 -69 49 -12 0 -42 -21 -68 -48z"/>
<path d="M578 775 c-27 -29 -48 -59 -48 -67 0 -21 21 -38 47 -38 20 0 23 -5
23 -41 0 -52 15 -79 43 -79 35 0 47 19 47 72 0 46 1 48 28 48 31 0 52 16 52
39 -1 9 -23 40 -50 69 -63 67 -81 67 -142 -3z"/>
<path d="M1526 774 c-45 -51 -48 -57 -37 -81 9 -20 17 -24 41 -21 l29 4 3 -60
3 -61 35 0 35 0 3 61 c3 59 4 61 28 56 15 -3 32 2 43 12 17 16 19 16 25 0 4
-12 15 -15 36 -12 30 5 30 5 30 -47 0 -56 12 -75 47 -75 28 0 43 27 43 79 0
36 3 41 23 41 26 0 47 17 47 38 0 22 -93 122 -115 122 -11 0 -43 -24 -73 -52
l-53 -53 -49 53 c-63 68 -81 67 -144 -4z"/>
</g>
</svg>
