<?xml version="1.0" standalone="no"?>
<!DOCTYPE svg PUBLIC "-//W3C//DTD SVG 20010904//EN"
 "http://www.w3.org/TR/2001/REC-SVG-20010904/DTD/svg10.dtd">
<svg version="1.0" xmlns="http://www.w3.org/2000/svg"
 width="256.000000pt" height="256.000000pt" viewBox="0 0 256.000000 256.000000"
 preserveAspectRatio="xMidYMid meet">
<metadata>
Created by potrace 1.16, written by Peter Selinger 2001-2019
</metadata>
<g transform="translate(0.000000,256.000000) scale(0.100000,-0.100000)"
fill="#000000" stroke="none">
<path d="M760 2536 c-209 -88 -373 -209 -442 -326 -58 -100 -143 -404 -199
-718 -21 -118 -21 -123 -4 -142 34 -38 139 -62 283 -68 l132 -4 0 -573 c0
-641 -7 -587 75 -619 147 -58 367 -86 675 -86 306 0 542 30 675 85 82 34 75
-21 75 620 l0 573 133 4 c143 6 248 30 282 68 17 18 17 24 0 117 -53 307 -145
644 -202 740 -62 107 -192 210 -372 296 -82 40 -117 51 -156 52 l-49 0 -33
-68 c-42 -86 -123 -169 -200 -205 -50 -23 -71 -27 -153 -27 -82 0 -103 4 -153
27 -78 37 -158 119 -200 205 -32 66 -34 68 -72 70 -24 2 -62 -7 -95 -21z m98
-170 c76 -116 196 -201 320 -227 77 -16 203 -6 275 21 102 39 218 143 282 255
10 16 16 15 85 -18 175 -83 291 -183 341 -293 17 -36 46 -123 65 -192 32 -118
104 -447 104 -476 0 -26 -173 -54 -254 -42 l-46 7 0 152 c0 161 12 263 36 311
21 43 18 93 -7 106 -32 18 -61 8 -86 -29 -48 -71 -47 -61 -53 -925 l-5 -819
-40 -14 c-80 -29 -234 -53 -412 -65 -281 -19 -617 9 -778 65 l-40 14 -5 819
c-6 864 -5 854 -53 925 -25 37 -54 47 -86 29 -25 -13 -28 -63 -7 -106 24 -48
36 -150 36 -311 l0 -152 -46 -7 c-81 -12 -254 16 -254 42 0 28 62 314 95 443
65 247 118 334 258 430 43 29 213 120 227 121 3 0 25 -29 48 -64z"/>
<path d="M862 1908 c-7 -7 -12 -43 -12 -93 0 -86 14 -115 54 -115 40 0 56 19
56 65 l0 45 39 0 c46 0 71 20 71 59 0 43 -16 51 -110 51 -54 0 -91 -5 -98 -12z"/>
<path d="M1143 1894 c-15 -24 -15 -29 -2 -53 15 -26 15 -26 139 -26 124 0 124
0 139 26 13 24 13 29 -2 53 -17 26 -19 26 -137 26 -118 0 -120 0 -137 -26z"/>
<path d="M1502 1908 c-17 -17 -15 -64 4 -82 9 -9 32 -16 55 -16 l39 0 0 -45
c0 -34 5 -47 19 -55 29 -15 56 -12 74 8 21 23 24 171 5 190 -7 7 -44 12 -98
12 -54 0 -91 -5 -98 -12z"/>
<path d="M872 1614 c-21 -14 -22 -22 -22 -139 0 -136 7 -155 59 -155 46 0 51
14 51 151 0 121 -1 129 -22 143 -12 9 -27 16 -33 16 -6 0 -21 -7 -33 -16z"/>
<path d="M1622 1614 c-21 -14 -22 -22 -22 -143 0 -137 5 -151 51 -151 52 0 59
19 59 155 0 117 -1 125 -22 139 -12 9 -27 16 -33 16 -6 0 -21 -7 -33 -16z"/>
<path d="M865 1224 c-13 -13 -15 -37 -13 -142 3 -125 3 -126 29 -141 24 -13
29 -13 53 2 26 17 26 18 26 145 0 86 -4 132 -12 140 -17 17 -64 15 -83 -4z"/>
<path d="M1612 1228 c-8 -8 -12 -54 -12 -140 0 -127 0 -128 26 -145 24 -15 29
-15 53 -2 26 15 26 16 29 141 2 105 0 129 -13 142 -19 19 -66 21 -83 4z"/>
<path d="M867 842 c-21 -23 -24 -171 -5 -190 16 -16 180 -16 196 0 17 17 15
64 -4 82 -9 9 -32 16 -55 16 l-39 0 0 45 c0 34 -5 47 -19 55 -29 15 -56 12
-74 -8z"/>
<path d="M1618 849 c-13 -7 -18 -23 -18 -54 l0 -45 -39 0 c-23 0 -46 -7 -55
-16 -19 -18 -21 -65 -4 -82 16 -16 180 -16 196 0 7 7 12 43 12 93 0 67 -3 85
-18 98 -21 19 -49 21 -74 6z"/>
<path d="M1143 724 c-15 -24 -15 -29 -2 -53 15 -26 15 -26 139 -26 124 0 124
0 139 26 13 24 13 29 -2 53 -17 26 -19 26 -137 26 -118 0 -120 0 -137 -26z"/>
</g>
</svg>
