<?xml version="1.0" standalone="no"?>
<!DOCTYPE svg PUBLIC "-//W3C//DTD SVG 20010904//EN"
 "http://www.w3.org/TR/2001/REC-SVG-20010904/DTD/svg10.dtd">
<svg version="1.0" xmlns="http://www.w3.org/2000/svg"
 width="256.000000pt" height="256.000000pt" viewBox="0 0 256.000000 256.000000"
 preserveAspectRatio="xMidYMid meet">
<metadata>
Created by potrace 1.16, written by Peter Selinger 2001-2019
</metadata>
<g transform="translate(0.000000,256.000000) scale(0.100000,-0.100000)"
fill="#000000" stroke="none">
<path d="M564 2316 c-34 -34 -34 -35 -34 -127 l-1 -94 -60 -35 c-75 -43 -160
-132 -199 -211 -59 -117 -61 -139 -58 -707 l3 -517 27 -68 c31 -77 69 -135
124 -191 56 -55 114 -93 191 -124 l68 -27 745 0 745 0 57 28 c71 35 130 101
159 176 17 44 20 71 17 132 -7 128 -71 223 -187 278 l-56 26 -412 3 -413 3 0
180 0 181 -29 29 c-25 24 -38 29 -78 29 -42 0 -54 -5 -79 -31 l-29 -30 0 -259
0 -259 29 -30 30 -31 442 0 c243 0 455 -3 473 -6 66 -14 106 -87 76 -143 -33
-64 -5 -62 -758 -59 l-682 3 -52 24 c-66 29 -143 111 -169 176 -18 47 -19 80
-19 545 0 486 0 496 22 542 32 70 94 131 166 164 l62 29 595 0 595 0 62 -29
c102 -47 171 -136 188 -243 l7 -43 -504 0 -504 0 -28 -28 c-34 -37 -43 -89
-22 -130 31 -61 41 -62 406 -62 l330 0 0 -126 c0 -125 0 -126 29 -154 51 -52
111 -52 162 0 29 28 29 29 29 154 l0 126 115 0 c184 0 205 19 205 180 0 123
-18 206 -61 292 -42 84 -145 185 -229 226 -110 54 -171 62 -492 62 l-288 0 0
71 c0 39 -5 79 -10 90 -14 26 -62 49 -102 49 -69 0 -108 -54 -108 -150 l0 -60
-155 0 -155 0 0 71 c0 67 -2 73 -34 105 -28 28 -42 34 -76 34 -34 0 -48 -6
-76 -34z"/>
<path d="M713 1598 c-72 -19 -98 -117 -47 -177 71 -84 211 -17 190 92 -13 67
-73 103 -143 85z"/>
<path d="M694 1164 c-62 -30 -75 -125 -25 -175 25 -24 38 -29 79 -29 40 0 54
5 75 26 52 52 40 146 -22 178 -38 20 -67 20 -107 0z"/>
</g>
</svg>
