<?xml version="1.0" standalone="no"?>
<!DOCTYPE svg PUBLIC "-//W3C//DTD SVG 20010904//EN"
 "http://www.w3.org/TR/2001/REC-SVG-20010904/DTD/svg10.dtd">
<svg version="1.0" xmlns="http://www.w3.org/2000/svg"
 width="512.000000pt" height="512.000000pt" viewBox="0 0 512.000000 512.000000"
 preserveAspectRatio="xMidYMid meet">
<metadata>
Created by potrace 1.16, written by Peter Selinger 2001-2019
</metadata>
<g transform="translate(0.000000,512.000000) scale(0.100000,-0.100000)"
fill="#000000" stroke="none">
<path d="M1469 5097 c-24 -13 -57 -43 -74 -66 l-30 -43 -3 -189 -4 -189 -160
0 c-127 0 -167 -3 -194 -16 -75 -36 -53 69 -409 -1994 -180 -1042 -328 -1916
-328 -1941 -1 -31 7 -57 22 -82 41 -67 38 -67 451 -67 l370 0 0 -172 c0 -189
9 -225 64 -280 61 -60 37 -58 703 -58 570 0 610 2 648 19 49 23 88 63 111 116
14 31 19 76 22 207 l4 167 375 3 374 3 40 42 c34 37 39 48 39 90 0 26 -43 295
-96 596 -52 302 -94 550 -92 552 2 2 39 -1 83 -6 125 -15 197 -58 244 -146 6
-13 18 -76 25 -142 22 -185 81 -310 194 -411 113 -101 251 -153 407 -153 51 0
118 8 154 17 203 52 365 212 427 421 28 94 23 248 -10 350 -66 204 -237 356
-448 399 -156 32 -210 11 -210 -81 0 -54 31 -79 107 -88 155 -16 264 -81 337
-200 106 -172 68 -414 -86 -540 -213 -174 -533 -104 -648 141 -24 51 -34 93
-44 178 -14 122 -29 172 -68 235 -71 112 -176 174 -329 195 -107 15 -127 24
-161 69 -23 31 -44 138 -239 1255 -233 1332 -219 1270 -294 1306 -27 13 -69
16 -198 16 l-163 0 -4 188 -3 187 -32 47 c-20 28 -49 54 -76 67 -42 20 -58 21
-399 21 -352 0 -355 0 -399 -23z m735 -173 c3 -9 6 -83 6 -165 l0 -149 -330 0
-330 0 0 158 c0 87 3 162 7 165 3 4 149 7 324 7 280 0 318 -2 323 -16z m-434
-503 c-215 -128 -736 -419 -738 -413 -1 5 13 99 33 209 19 110 35 203 35 207
0 3 154 6 343 6 204 0 336 -4 327 -9z m890 2 c-1 -11 -1724 -982 -1727 -974
-2 3 10 75 25 159 l27 154 585 334 585 334 253 0 c138 0 252 -3 252 -7z m35
-225 c16 -73 46 -270 43 -283 -3 -16 -1628 -915 -1654 -915 -15 0 -217 49
-221 54 -8 7 28 152 39 159 52 32 1775 1006 1780 1006 4 1 10 -9 13 -21z m85
-490 c0 -2 9 -55 20 -118 19 -109 19 -116 2 -128 -9 -7 -247 -154 -529 -327
l-512 -315 -200 52 c-111 29 -201 55 -201 58 0 6 1400 779 1413 780 4 0 7 -1
7 -2z m99 -575 c12 -76 25 -145 27 -154 3 -12 -61 -53 -261 -168 l-265 -151
-187 48 -186 48 418 257 c230 141 421 257 425 257 3 0 16 -62 29 -137z m-1029
-524 c531 -137 969 -251 973 -252 15 -5 -424 -252 -441 -249 -24 5 -1540 421
-1578 433 l-31 10 24 137 c34 198 29 185 61 177 15 -3 461 -119 992 -256z
m1114 31 c10 -58 20 -113 22 -122 4 -14 -23 -9 -175 30 l-180 46 152 87 c97
55 154 83 158 75 3 -6 14 -58 23 -116z m-1499 -471 c385 -105 701 -192 703
-194 2 -2 -93 -59 -210 -127 l-213 -124 -527 141 c-290 78 -530 144 -533 147
-4 3 8 83 24 176 17 94 31 173 31 176 0 3 6 3 13 1 6 -2 327 -90 712 -196z
m1596 -86 c13 -78 21 -144 19 -146 -3 -2 -453 -283 -1001 -625 l-995 -622
-318 0 -318 0 7 43 c4 23 8 42 9 42 8 0 245 137 1316 758 972 565 1246 720
1251 708 3 -9 16 -80 30 -158z m-1833 -408 c160 -43 291 -79 289 -81 -8 -9
-350 -204 -356 -204 -10 0 -544 200 -550 206 -4 3 26 194 34 221 3 8 46 0 147
-26 79 -21 275 -73 436 -116z m1896 38 c3 -16 15 -84 27 -152 18 -103 19 -125
8 -136 -8 -7 -286 -175 -618 -374 l-603 -361 -250 2 -250 3 833 522 c459 287
837 522 841 522 3 1 9 -11 12 -26z m-2367 -369 c98 -37 181 -70 186 -73 4 -4
-92 -65 -213 -135 -122 -71 -222 -127 -224 -125 -3 5 66 399 71 399 1 0 83
-30 180 -66z m2498 -382 c25 -145 45 -266 45 -268 0 -2 -226 -4 -502 -4 l-503
0 455 273 c250 151 456 271 457 268 1 -3 23 -124 48 -269z m-795 -605 c0 -106
-4 -157 -12 -165 -17 -17 -1139 -17 -1156 0 -8 8 -12 59 -12 165 l0 153 590 0
590 0 0 -153z"/>
</g>
</svg>
